<?xml version="1.0" standalone="no"?>
<!DOCTYPE svg PUBLIC "-//W3C//DTD SVG 20010904//EN"
 "http://www.w3.org/TR/2001/REC-SVG-20010904/DTD/svg10.dtd">
<svg version="1.0" xmlns="http://www.w3.org/2000/svg"
 width="700.000000pt" height="700.000000pt" viewBox="0 0 700.000000 700.000000"
 preserveAspectRatio="xMidYMid meet">
<metadata>
Created by potrace 1.14, written by Peter Selinger 2001-2017
</metadata>
<g transform="translate(0.000000,700.000000) scale(0.100000,-0.100000)"
fill="#000000" stroke="none">
<path d="M2814 6278 c-3 -12 -33 -77 -65 -146 -33 -68 -59 -125 -59 -127 0 -1
-26 -58 -59 -126 -32 -68 -75 -160 -96 -204 -21 -44 -55 -118 -77 -165 -38
-81 -56 -120 -129 -277 -65 -142 -98 -211 -137 -293 -43 -93 -97 -208 -144
-310 -17 -36 -45 -96 -63 -135 -18 -38 -47 -101 -65 -140 -18 -38 -53 -115
-80 -170 -98 -209 -133 -285 -129 -288 2 -2 45 -22 94 -44 50 -23 135 -63 190
-89 258 -121 307 -144 310 -144 2 0 74 -34 160 -75 86 -41 158 -75 159 -75 2
0 55 -24 117 -54 63 -29 143 -67 179 -84 36 -16 100 -46 143 -66 42 -20 112
-52 155 -72 42 -20 104 -49 137 -64 119 -56 261 -123 315 -147 30 -14 127 -59
215 -100 88 -42 184 -86 213 -99 28 -14 52 -27 52 -30 0 -6 -71 -159 -181
-393 -33 -68 -59 -125 -59 -127 0 -2 -28 -64 -63 -136 -34 -73 -78 -168 -97
-210 -19 -43 -38 -77 -42 -78 -5 0 -52 21 -105 46 -54 25 -291 136 -528 246
-236 110 -481 225 -543 254 -63 30 -115 54 -117 54 -3 0 -69 31 -149 69 -79
38 -153 72 -164 75 -24 8 -23 14 11 86 14 30 57 123 95 205 l70 150 -62 30
c-70 34 -222 106 -346 163 -47 22 -119 55 -160 75 -41 19 -114 53 -162 75
l-86 40 -25 -57 c-14 -31 -62 -135 -107 -231 -45 -96 -94 -202 -110 -235 -15
-33 -47 -100 -70 -150 -23 -49 -55 -117 -70 -150 -15 -33 -47 -100 -70 -150
-77 -165 -82 -177 -73 -185 4 -4 73 -38 153 -75 80 -37 183 -86 230 -107 86
-41 315 -147 425 -198 83 -39 237 -111 315 -147 36 -17 99 -47 141 -67 42 -19
217 -101 390 -181 173 -81 323 -151 334 -155 11 -4 79 -36 150 -70 72 -34 155
-73 185 -87 30 -14 96 -45 145 -68 50 -23 115 -54 145 -68 86 -40 219 -101
425 -197 105 -49 196 -90 202 -92 12 -3 32 38 150 292 14 30 52 111 84 179 33
67 59 124 59 126 0 1 24 54 54 116 51 108 223 477 289 619 16 36 54 116 83
179 30 62 54 114 54 116 0 2 26 59 59 126 32 68 68 146 80 172 12 27 44 95 71
152 27 57 58 123 69 147 10 24 33 72 50 107 l30 64 -92 42 c-51 23 -121 56
-157 72 -218 102 -838 391 -905 423 -179 84 -238 112 -293 136 -31 15 -108 51
-171 80 -62 30 -115 54 -116 54 -2 0 -65 30 -141 66 -77 36 -159 75 -184 86
-25 11 -90 42 -145 67 -55 26 -132 62 -171 80 l-72 33 25 57 c14 31 42 92 63
136 21 44 68 145 105 224 36 80 86 185 109 235 149 317 138 297 160 290 12 -4
66 -28 121 -54 55 -26 161 -76 235 -110 74 -34 176 -82 225 -105 79 -38 208
-98 450 -210 360 -167 570 -266 573 -270 3 -3 -10 -37 -28 -77 -82 -178 -123
-266 -141 -301 -24 -48 -24 -56 4 -66 12 -5 74 -34 137 -64 63 -30 171 -80
240 -112 69 -32 185 -86 258 -121 74 -35 139 -64 146 -64 7 0 22 21 33 48 18
40 242 522 350 752 48 102 99 212 134 288 l28 62 -32 14 c-30 13 -71 32 -324
152 -54 26 -120 57 -148 69 -48 22 -164 76 -575 267 -47 22 -148 69 -225 105
-77 36 -171 80 -210 98 -38 18 -173 81 -300 140 -126 59 -273 127 -325 152
-52 25 -183 85 -290 135 -107 50 -246 115 -308 144 -63 30 -115 54 -117 54 -2
0 -56 25 -121 56 -302 143 -291 139 -300 112z"/>
</g>
</svg>
