<svg aria-labelledby="next-logo" fill="none" height="64" role="img" viewBox="0 0 174 64" width="174" xmlns="http://www.w3.org/2000/svg"><path d="M113.693 16.014h28.217v5.208h-11.193v27.4h-5.597v-27.4h-11.427v-5.208ZM67.285 16.014v5.208H44.667V29.6h18.19v5.209h-18.19v8.604h22.618v5.209H39.07v-27.4h-.002v-5.208h28.217ZM81.376 16.027H74.05l26.235 32.608h7.346l-13.12-16.293 13.099-16.29-7.325.011-9.44 11.725-9.47-11.76ZM88.892 39.32l-3.669-4.561L74.03 48.66h7.346l7.516-9.34Z" fill="#fff"></path><path clip-rule="evenodd" d="M39.266 48.622 12.996 16H6v32.608h5.597V22.97l20.638 25.652h7.031Z" fill="#fff" fill-rule="evenodd"></path><path d="M143.168 48.422a1.45 1.45 0 0 1-1.05-.425 1.368 1.368 0 0 1-.432-1.036c-.004-.396.14-.736.432-1.02a1.451 1.451 0 0 1 1.05-.426c.395 0 .74.142 1.032.426.296.284.444.624.447 1.02-.003.27-.072.516-.208.737-.141.224-.319.4-.542.526-.22.131-.463.199-.729.199ZM152.721 34.686h2.48v9.555c-.003.878-.193 1.63-.565 2.26a3.759 3.759 0 0 1-1.562 1.454c-.664.337-1.441.509-2.325.509-.808 0-1.532-.146-2.176-.43a3.508 3.508 0 0 1-1.533-1.27c-.379-.561-.565-1.26-.565-2.097h2.484c.004.366.088.684.247.95.159.264.379.466.66.608.284.142.61.213.978.213.398 0 .74-.082 1.016-.25.277-.165.49-.411.637-.74.145-.325.22-.729.224-1.207v-9.555ZM165.406 38.423c-.06-.58-.326-1.032-.788-1.353-.467-.325-1.07-.486-1.809-.486-.52 0-.967.078-1.339.232-.372.157-.66.366-.857.631a1.536 1.536 0 0 0-.303.908c0 .284.068.531.201.737.132.209.31.384.542.526.227.146.481.266.758.363.281.097.562.18.842.246l1.293.318c.52.12 1.024.28 1.506.486.482.202.918.46 1.301.77.383.31.686.684.91 1.12.223.438.337.95.337 1.54 0 .796-.205 1.495-.618 2.1-.413.602-1.009 1.073-1.79 1.413-.777.336-1.718.508-2.825.508-1.069 0-2.002-.164-2.787-.493-.789-.325-1.404-.803-1.847-1.431-.444-.628-.683-1.394-.717-2.295h2.457c.035.471.186.864.444 1.181.262.314.603.546 1.02.703.421.153.891.231 1.411.231.542 0 1.02-.082 1.433-.242.41-.161.732-.385.964-.677.235-.288.352-.628.356-1.016-.004-.355-.11-.65-.315-.882-.208-.232-.496-.426-.864-.583a8.906 8.906 0 0 0-1.297-.422l-1.57-.396c-1.134-.288-2.033-.725-2.689-1.312-.66-.587-.986-1.364-.986-2.34 0-.8.22-1.502.664-2.103.44-.602 1.043-1.069 1.805-1.402.766-.336 1.631-.5 2.594-.5.978 0 1.835.164 2.575.5.739.333 1.319.796 1.74 1.387.421.59.641 1.267.653 2.033h-2.405Z" fill="#fff"></path></svg>